<?xml version="1.0" encoding="utf-8"?>
<!-- Generator: Adobe Illustrator 16.0.0, SVG Export Plug-In . SVG Version: 6.00 Build 0)  -->
<!DOCTYPE svg PUBLIC "-//W3C//DTD SVG 1.1//EN" "http://www.w3.org/Graphics/SVG/1.1/DTD/svg11.dtd">
<svg version="1.1" id="Layer_1" xmlns="http://www.w3.org/2000/svg" xmlns:xlink="http://www.w3.org/1999/xlink" x="0px" y="0px"
	 width="1500px" height="1500px" viewBox="0 0 1500 1500" enable-background="new 0 0 1500 1500" xml:space="preserve">
<g>
	<defs>
		<filter id="Adobe_OpacityMaskFilter" filterUnits="userSpaceOnUse" x="610.46" y="487.603" width="344.53" height="450.626">
			<feColorMatrix  type="matrix" values="1 0 0 0 0  0 1 0 0 0  0 0 1 0 0  0 0 0 1 0"/>
		</filter>
	</defs>
	<mask maskUnits="userSpaceOnUse" x="610.46" y="487.603" width="344.53" height="450.626" id="SVGID_1_">
		<g filter="url(#Adobe_OpacityMaskFilter)">
			
				<linearGradient id="SVGID_2_" gradientUnits="userSpaceOnUse" x1="126.7358" y1="1458.4932" x2="45.223" y2="1762.7393" gradientTransform="matrix(1 0 0 1 676.5327 -822.251)">
				<stop  offset="0" style="stop-color:#FFFFFF"/>
				<stop  offset="1" style="stop-color:#000000"/>
			</linearGradient>
			<rect x="610.459" y="487.603" fill="url(#SVGID_2_)" width="344.531" height="450.625"/>
		</g>
	</mask>
	<path opacity="0.1" mask="url(#SVGID_1_)" fill-rule="evenodd" clip-rule="evenodd" d="M954.99,525.324
		c-29.984-12.574-59.97-25.147-89.955-37.722c0,9.568,0,10.117,0,19.685c0,28.882-10.021,41.588-30.782,62.35
		c-76.864,76.862-91.02,91.019-165.502,165.501c-53.349,53.349-86.633,109.71-25.167,153.462
		c31.043,22.094,38.681,27.532,69.726,49.629C793.871,800.594,874.432,662.959,954.99,525.324"/>
	<path fill-rule="evenodd" clip-rule="evenodd" fill="#21BABE" d="M697.998,526.634c10.055,0,18.206,8.15,18.206,18.206
		c0,10.055-8.151,18.206-18.206,18.206c-10.056,0-18.206-8.151-18.206-18.206C679.792,534.784,687.942,526.634,697.998,526.634
		 M734.348,281.331l-134.201,77.48l-0.056-0.097l-135.633,78.309l-0.552,0.328l-0.207,0.128l-0.416,0.261l-0.111,0.071
		c-0.178,0.117-0.357,0.234-0.532,0.353l-0.045,0.03l-0.069,0.048l-0.464,0.327l-0.117,0.084l-0.448,0.333l-0.075,0.054
		l-0.068,0.053l-0.468,0.366l-0.137,0.111l-0.335,0.275l-0.201,0.169l-0.302,0.26l-0.148,0.128l-0.024,0.022l-0.042,0.038
		l-0.424,0.386l-0.092,0.087l-0.379,0.363l-0.123,0.118l-0.435,0.437l-0.015,0.017l-0.436,0.461l-0.112,0.122l-0.322,0.356
		l-0.118,0.132l-0.417,0.488l-0.01,0.014l-0.367,0.45l-0.143,0.179l-0.284,0.367l-0.065,0.085l-0.038,0.048l-0.301,0.409
		l-0.032,0.044l-0.14,0.198l-0.203,0.288l-0.167,0.247l-0.039,0.056l-0.273,0.413l-0.005,0.009l-0.271,0.428l-0.03,0.051
		l-0.144,0.236l-0.202,0.337l-0.104,0.18l-0.198,0.35l-0.209,0.381l-0.163,0.308l-0.129,0.25l-0.148,0.295l-0.115,0.231
		l-0.014,0.029l-0.213,0.454l-0.014,0.03l-0.086,0.191l-0.166,0.374l-0.1,0.234l-0.13,0.315l-0.083,0.2l-0.016,0.039l-0.18,0.467
		l-0.009,0.021l-0.129,0.351l-0.07,0.196l-0.11,0.315l-0.109,0.327l-0.14,0.442l-0.101,0.324l-0.081,0.281l-0.067,0.237l-0.1,0.369
		L451,454.965l-0.08,0.341l-0.044,0.194l-0.09,0.418l-0.018,0.079l-0.086,0.436l-0.089,0.493l-0.057,0.343l-0.04,0.262l-0.048,0.334
		l-0.028,0.215l-0.043,0.335l-0.054,0.499l-0.037,0.397l-0.018,0.209l-0.028,0.395l-0.029,0.503l-0.016,0.437l-0.003,0.086
		l-0.01,0.436l-0.001,0.125c-0.004,0.452,0.001,0.904,0.021,1.358l0.005,0.133l0.019,0.412l0.007,0.116
		c0.019,0.312,0.042,0.625,0.073,0.938c0,51.29,0,102.577,0,153.867c0,10.938,9.91,15.665,19.359,10.209l69.996-40.266v-25.523
		c0-4.806,2.745-8.971,6.752-11.012l43.516-25.715c4.987-2.947,11.207-1.978,15.083,1.99l15.183,14.34l73.556-41.945
		c4.029-2.286,8.798-2.052,12.493,0.196l0.001-0.003l18.068,10.997l115.844-44.834c5.467-1.929,11.385,0.228,14.42,4.875
		l0.006-0.003l36.153,55.235c2.773,4.238,2.603,9.549-0.009,13.529C838.05,637.55,775.421,751.941,722.745,849.095
		c-31.228,54.087-19.872,88.181,6.897,103.637l5.84,3.372c1.798,1.067,3.725,1.942,5.749,2.599l0.182,0.059l0.309,0.095l0.243,0.071
		l0.29,0.084l0.563,0.154l0.026,0.008l0.656,0.161l0.053,0.012c2.825,0.656,5.698,0.868,8.528,0.659l0.323-0.026l0.197-0.018
		c4.276-0.389,8.276-1.721,11.8-3.788l0.009-0.005l0.326-0.192l0.029-0.02l0.535-0.33l0.05-0.032l0.304-0.194l134.199-77.48
		l0.056,0.095l135.635-78.308c9.985-5.767,15.174-16.656,14.153-27.433v-153.87h0.053V461.787
		c0.018-10.689-5.861-20.011-14.567-24.896l-135.341-78.138l-135.632-78.307C754.574,274.901,743.049,275.62,734.348,281.331z"/>
	<defs>
		<filter id="Adobe_OpacityMaskFilter_1_" filterUnits="userSpaceOnUse" x="450.179" y="341.022" width="399.688" height="289.79">
			<feColorMatrix  type="matrix" values="1 0 0 0 0  0 1 0 0 0  0 0 1 0 0  0 0 0 1 0"/>
		</filter>
	</defs>
	<mask maskUnits="userSpaceOnUse" x="450.179" y="341.022" width="399.688" height="289.79" id="SVGID_3_">
		<g filter="url(#Adobe_OpacityMaskFilter_1_)">
			
				<linearGradient id="SVGID_4_" gradientUnits="userSpaceOnUse" x1="253.5093" y1="1512.3135" x2="26.6949" y2="1512.3135" gradientTransform="matrix(1 0 0 1 570.0962 -1026.3965)">
				<stop  offset="0" style="stop-color:#FFFFFF"/>
				<stop  offset="1" style="stop-color:#000000"/>
			</linearGradient>
			<rect x="450.179" y="341.023" fill="url(#SVGID_4_)" width="399.688" height="289.789"/>
		</g>
	</mask>
	<path mask="url(#SVGID_3_)" fill-rule="evenodd" clip-rule="evenodd" fill="#1EADB3" d="M697.998,526.634
		c10.055,0,18.206,8.15,18.206,18.206c0,10.055-8.151,18.206-18.206,18.206c-10.056,0-18.206-8.151-18.206-18.206
		C679.792,534.784,687.942,526.634,697.998,526.634 M630.958,341.022l-30.811,17.789l-0.056-0.097l-135.633,78.309l-0.552,0.328
		l-0.207,0.128l-0.416,0.261l-0.111,0.071c-0.178,0.117-0.357,0.234-0.532,0.353l-0.045,0.03l-0.069,0.048l-0.464,0.327
		l-0.117,0.084l-0.448,0.333l-0.075,0.054l-0.068,0.053l-0.468,0.366l-0.137,0.111l-0.335,0.275l-0.201,0.169l-0.302,0.26
		l-0.148,0.128l-0.024,0.022l-0.042,0.038l-0.424,0.386l-0.092,0.087l-0.379,0.363l-0.123,0.118l-0.435,0.437l-0.015,0.017
		l-0.436,0.461l-0.112,0.122l-0.322,0.356l-0.118,0.132l-0.417,0.488l-0.01,0.014l-0.367,0.45l-0.143,0.179l-0.284,0.367
		l-0.065,0.085l-0.038,0.048l-0.301,0.409l-0.032,0.044l-0.14,0.198l-0.203,0.288l-0.167,0.247l-0.039,0.056l-0.273,0.413
		l-0.005,0.009l-0.271,0.428l-0.03,0.051l-0.144,0.236l-0.202,0.337l-0.104,0.18l-0.198,0.35l-0.209,0.381l-0.163,0.308l-0.129,0.25
		l-0.148,0.295l-0.115,0.231l-0.014,0.029l-0.213,0.454l-0.014,0.03l-0.086,0.191l-0.166,0.374l-0.1,0.234l-0.13,0.315l-0.083,0.2
		l-0.016,0.039l-0.18,0.467l-0.009,0.021l-0.129,0.351l-0.07,0.196l-0.11,0.315l-0.109,0.327l-0.14,0.442l-0.101,0.324l-0.081,0.281
		l-0.067,0.237l-0.1,0.369L451,454.965l-0.08,0.341l-0.044,0.194l-0.09,0.418l-0.018,0.079l-0.086,0.436l-0.089,0.493l-0.057,0.343
		l-0.04,0.262l-0.048,0.334l-0.028,0.215l-0.043,0.335l-0.054,0.499l-0.037,0.397l-0.018,0.209l-0.028,0.395l-0.029,0.503
		l-0.016,0.437l-0.003,0.086l-0.01,0.436l-0.001,0.125c-0.004,0.452,0.001,0.904,0.021,1.358l0.005,0.133l0.019,0.412l0.007,0.116
		c0.019,0.312,0.042,0.625,0.073,0.938c0,51.29,0,102.577,0,153.867c0,10.938,9.91,15.665,19.359,10.209l69.996-40.266v-25.523
		c0-4.806,2.745-8.971,6.752-11.012l43.516-25.715c4.987-2.947,11.207-1.978,15.083,1.99l15.183,14.34l73.556-41.945
		c4.029-2.286,8.798-2.052,12.493,0.196l0.001-0.003l18.068,10.997l115.844-44.834c3.32-1.171,6.806-0.836,9.711,0.648
		L630.958,341.022z"/>
	<path fill="#4F5A6B" d="M1164.099,1219.995l50.388-69.423l-50.388-69.424h38.35l35.273,49.268l34.991-49.268h38.629l-50.667,69.424
		l50.667,69.423h-38.629l-34.991-49.268l-35.273,49.268H1164.099z M1090.708,1192.28c9.332,0,17.449-3.5,24.355-10.497
		s10.355-17.402,10.355-31.211c0-13.813-3.449-24.215-10.355-31.215c-6.906-6.997-14.93-10.497-24.073-10.497
		c-9.518,0-17.686,3.5-24.494,10.497c-6.812,7-10.221,17.402-10.221,31.215c0,13.809,3.409,24.214,10.221,31.211
		C1073.305,1188.78,1081.378,1192.28,1090.708,1192.28z M1090.708,1223.354c-13.436,0-25.521-3.079-36.25-9.237
		c-10.732-6.159-19.224-14.697-25.474-25.615c-6.253-10.917-9.379-23.559-9.379-37.929c0-14.371,3.173-27.015,9.518-37.933
		c6.347-10.918,14.885-19.456,25.614-25.614c10.732-6.156,22.814-9.235,36.253-9.235c13.25,0,25.238,3.079,35.971,9.235
		c10.729,6.158,19.22,14.696,25.473,25.614s9.38,23.562,9.38,37.933c0,14.37-3.127,27.012-9.38,37.929
		c-6.253,10.918-14.791,19.456-25.614,25.615C1115.996,1220.274,1103.958,1223.354,1090.708,1223.354z M925.502,1192.001
		c11.383,0,20.81-3.826,28.273-11.477c7.465-7.652,11.197-17.544,11.197-29.673c0-12.13-3.732-22.115-11.197-29.953
		c-7.464-7.838-16.891-11.756-28.273-11.756c-11.57,0-21.041,3.871-28.414,11.615c-7.371,7.746-11.056,17.682-11.056,29.814
		c0,12.129,3.685,22.067,11.056,29.812C904.461,1188.128,913.932,1192.001,925.502,1192.001z M933.059,1223.354
		c-10.45,0-19.595-1.958-27.433-5.879c-7.838-3.918-14.183-9.424-19.035-16.515l-3.918,19.035h-31.914v-201.552h35.832v82.579
		c4.479-6.159,10.403-11.571,17.776-16.235c7.371-4.665,16.936-6.997,28.691-6.997c13.064,0,24.729,3.171,34.994,9.518
		c10.264,6.344,18.382,15.021,24.353,26.032c5.974,11.012,8.959,23.515,8.959,37.512s-2.985,26.453-8.959,37.37
		c-5.971,10.918-14.089,19.503-24.353,25.753C957.787,1220.228,946.123,1223.354,933.059,1223.354z M765.256,1097.663
		c-11.197,0-21.134,3.406-29.813,10.218c-8.677,6.812-13.669,16.75-14.977,29.814h87.34c-0.559-12.506-4.853-22.303-12.876-29.394
		C786.903,1101.21,777.012,1097.663,765.256,1097.663z M765.256,1223.354c-13.25,0-25.008-3.032-35.272-9.097
		c-10.263-6.067-18.334-14.512-24.214-25.335c-5.878-10.823-8.817-23.608-8.817-38.35c0-14.557,2.893-27.294,8.678-38.212
		c5.786-10.918,13.856-19.409,24.214-25.474c10.358-6.064,22.348-9.097,35.971-9.097c13.438,0,25.057,3.032,34.854,9.097
		s17.309,14.044,22.535,23.936c5.224,9.891,7.838,20.526,7.838,31.911c0,2.054-0.047,4.106-0.141,6.159
		c-0.095,2.053-0.142,4.385-0.142,6.997H720.187c0.56,10.638,3.032,19.456,7.417,26.453c4.387,7,9.891,12.271,16.518,15.817
		c6.623,3.544,13.669,5.317,21.134,5.317c9.703,0,17.82-2.238,24.354-6.718c6.532-4.479,11.291-10.544,14.275-18.197h23.235
		c-3.731,12.88-10.87,23.563-21.414,32.054S781.68,1223.354,765.256,1223.354z M663.516,1219.995
		c-12.69,0-22.674-3.079-29.953-9.238c-7.278-6.158-10.917-17.262-10.917-33.312v-76.423h-24.074v-19.874h24.074l3.08-33.312h20.435
		v33.312h40.87v19.874h-40.87v76.423c0,8.771,1.773,14.697,5.319,17.776c3.545,3.076,9.797,4.618,18.755,4.618h14.557v20.155
		H663.516z M554.498,1219.995v-138.847h23.514v138.847H554.498z M566.254,1050.354c-4.666,0-8.537-1.538-11.617-4.617
		c-3.08-3.08-4.619-6.953-4.619-11.618c0-4.479,1.54-8.211,4.619-11.196c3.08-2.987,6.951-4.479,11.617-4.479
		c4.479,0,8.305,1.492,11.478,4.479c3.172,2.985,4.759,6.717,4.759,11.196c0,4.665-1.587,8.538-4.759,11.618
		C574.56,1048.816,570.734,1050.354,566.254,1050.354z M402.09,1219.995v-201.552h23.514v86.499
		c4.665-8.585,11.29-15.256,19.875-20.015s17.916-7.138,27.993-7.138c16.05,0,28.926,4.991,38.631,14.977
		c9.705,9.982,14.557,25.332,14.557,46.047v81.182h-23.234v-78.661c0-28.927-11.664-43.392-34.992-43.392
		c-12.131,0-22.302,4.342-30.513,13.018c-8.211,8.68-12.317,21.041-12.317,37.092v71.943H402.09z M229.248,1219.995l-40.591-138.847
		h23.514l29.393,108.894l32.472-108.894h26.594l32.752,108.894l29.112-108.894h23.795l-40.59,138.847h-24.074l-34.152-114.493
		l-34.151,114.493H229.248z"/>
</g>
</svg>
